:version 1.10
:name ASF
:units
  mass 1
  length 1
  angle deg
:documentation
  ASF file generated by Kaydara
:root
  axis xyz
  order  tx ty tz rx ry rz
  position 0 0 0
  orientation 0 0 0
:bonedata
  begin
    id 1
    name RightUpLegDummy
    direction -0.718183 -0.695806 0.00816078
    length 4.904
    axis 0 0 0 xyz
  end
  begin
    id 2
    name RightUpLeg
    direction 3.53989e-006 -0.995788 0.0916897
    length 17.4976
    axis -3.49089 -0.000906621 0.000287158 xyz
    dof rx ry rz
  end
  begin
    id 3
    name RightLeg
    direction 0.00371093 -0.995096 -0.0988418
    length 16.5821
    axis 3.68512 0.0193738 -0.131023 xyz
    dof rx ry rz
  end
  begin
    id 4
    name RightFoot
    direction 0.000791514 -0.46099 0.887405
    length 3.77069
    axis 4.84075e-005 -0.120479 -0.188788 xyz
    dof rx ry rz
  end
  begin
    id 5
    name RightToes
    direction 0.00124746 -0.014064 0.9999
    length 3.85082
    axis 0.00048216 0.542163 -0.142577 xyz
    dof rx ry rz
  end
  begin
    id 6
    name SpineDummy
    direction 8.36599e-015 1 5.97571e-016
    length 4.6813
    axis 0 0 0 xyz
  end
  begin
    id 7
    name Spine
    direction -4.63632e-008 0.999988 0.00495137
    length 10.1015
    axis -0.00138897 0.000121419 3.25764e-006 xyz
    dof rx ry rz
  end
  begin
    id 8
    name Spine1
    direction 0 0 0
    length 0
    axis -0.00138896 0.000121452 2.39764e-006 xyz
    dof rx ry rz
  end
  begin
    id 9
    name HEadDummy
    direction -3.91456e-008 0.999999 0.00127422
    length 3.43865
    axis -0.00138896 0.000121452 2.39764e-006 xyz
  end
  begin
    id 10
    name HEad
    direction -0.0222688 0.980941 0.193023
    length 5.12695
    axis -0.00138895 0.000121452 2.39764e-006 xyz
    dof rx ry rz
  end
  begin
    id 11
    name LeftShoulder1Dummy
    direction 0.998891 -0.0402508 -0.0244456
    length 3.5433
    axis -0.00138896 0.000121452 2.39764e-006 xyz
  end
  begin
    id 12
    name LeftShoulder1
    direction 0.99951 -0.000327743 0.0313091
    length 4.05031
    axis -0.00138896 0.000121452 2.39764e-006 xyz
    dof rx ry rz
  end
  begin
    id 13
    name LeftArm
    direction 0.998561 -0.00100054 -0.0536182
    length 10.3537
    axis -23.1894 0.134784 0.96751 xyz
    dof rx ry rz
  end
  begin
    id 14
    name LeftForeArm
    direction 0.998903 0.00866434 0.046012
    length 8.70632
    axis -9.91835 -0.06569 -0.177792 xyz
    dof rx ry rz
  end
  begin
    id 15
    name LeftHand
    direction 0.992938 -0.0411636 0.11126
    length 5.32135
    axis -0.00960227 -0.00340091 0.185174 xyz
    dof rx ry rz
  end
  begin
    id 16
    name RightShoulderDummy
    direction -0.998891 -0.0402509 -0.0244414
    length 3.5433
    axis -0.00138896 0.000121452 2.39764e-006 xyz
  end
  begin
    id 17
    name RightShoulder
    direction -0.99951 -0.000327827 0.0313133
    length 4.05031
    axis 0.215806 0.000203644 -0.00680151 xyz
    dof rx ry rz
  end
  begin
    id 18
    name RightArm
    direction -0.998573 -0.000999583 -0.053403
    length 10.3947
    axis -23.2009 -0.134239 -0.9641 xyz
    dof rx ry rz
  end
  begin
    id 19
    name RightForeArm
    direction -0.998898 0.00868026 0.0461306
    length 8.68355
    axis -9.92322 0.0658061 0.178869 xyz
    dof rx ry rz
  end
  begin
    id 20
    name RightHand
    direction -0.992843 -0.0414603 0.112003
    length 5.28593
    axis -0.00960634 0.00330671 -0.185226 xyz
    dof rx ry rz
  end
  begin
    id 21
    name LeftUpLegDummy
    direction 0.718183 -0.695806 0.00816078
    length 4.904
    axis 0 0 0 xyz
  end
  begin
    id 22
    name LeftUpLeg
    direction -6.8115e-006 -0.995793 0.0916336
    length 17.4976
    axis -3.48766 0.00143441 -0.000523914 xyz
    dof rx ry rz
  end
  begin
    id 23
    name LeftLeg
    direction -0.00601357 -0.995091 -0.0987824
    length 16.5821
    axis 3.68177 -0.00654038 -0.00028478 xyz
    dof rx ry rz
  end
  begin
    id 24
    name LeftFoot
    direction -0.00417578 -0.460984 0.887399
    length 3.77069
    axis 1.87232e-006 4.66002e-005 -8.1837e-006 xyz
    dof rx ry rz
  end
  begin
    id 25
    name LeftToes
    direction 0.00818058 -0.00485161 0.999955
    length 3.85048
    axis 1.06246e-005 4.65855e-005 -8.18502e-006 xyz
    dof rx ry rz
  end
:hierarchy
  begin
    root RightUpLegDummy SpineDummy LeftUpLegDummy
    RightUpLegDummy RightUpLeg
    RightUpLeg RightLeg
    RightLeg RightFoot
    RightFoot RightToes
    SpineDummy Spine
    Spine Spine1
    Spine1 HEadDummy LeftShoulder1Dummy RightShoulderDummy
    HEadDummy HEad
    LeftShoulder1Dummy LeftShoulder1
    LeftShoulder1 LeftArm
    LeftArm LeftForeArm
    LeftForeArm LeftHand
    RightShoulderDummy RightShoulder
    RightShoulder RightArm
    RightArm RightForeArm
    RightForeArm RightHand
    LeftUpLegDummy LeftUpLeg
    LeftUpLeg LeftLeg
    LeftLeg LeftFoot
    LeftFoot LeftToes
  end

:SAMPLES-PER-SECOND 30
:FULLY-SPECIFIED
:DEGREES
17
root  -3.77339 38.9054 11.2005 -179.797 54.3937 177.163
RightUpLeg  -20.1834 -11.0098 -3.72489
RightLeg  21.8742 -10.4978 -4.81408
RightFoot  -1.22307 -0.770692 8.59526
RightToes  -1.39699e-009 0 -3.6325e-017
Spine  10.4128 -0.334812 -13.8185
Spine1  30.7804 -2.81645 1.34545
HEad  -35.4024 43.6791 -23.8085
LeftShoulder1  2.83913 -8.43836 -17.1168
LeftArm  6.8565 -17.0259 -58.1878
LeftForeArm  11.466 -76.69 -65.5318
LeftHand  -0.191753 4.3947 21.7146
RightShoulder  0.727334 0.609541 10.4886
RightArm  -0.0691135 -3.62627 61.3875
RightForeArm  135.445 67.8408 151.863
RightHand  -1.47984 4.13255 -18.1703
LeftUpLeg  0.161512 0.474999 7.98344
LeftLeg  10.8516 -8.77727 2.38071
LeftFoot  -14.6984 -0.326978 -14.0916
LeftToes  3.40148e-010 1.80944e-010 1.01921e-010
18
root  -3.7544 38.894 11.1967 -179.826 54.6378 177.065
RightUpLeg  -20.3462 -10.7572 -3.74587
RightLeg  22.0616 -10.5012 -4.85645
RightFoot  -1.2868 -0.768297 8.61786
RightToes  -1.39699e-009 0 -3.6325e-017
Spine  10.3779 -0.365945 -13.8562
Spine1  30.7534 -2.82734 1.29831
HEad  -35.5495 43.9962 -24.198
LeftShoulder1  2.81992 -8.27458 -17.2983
LeftArm  7.15608 -17.2154 -58.1433
LeftForeArm  10.2641 -76.5743 -64.4746
LeftHand  -0.223046 4.25085 22.1736
RightShoulder  0.740654 0.696033 10.4343
RightArm  -0.0887449 -3.48002 61.5148
RightForeArm  135.051 68.1017 151.463
RightHand  -1.46821 4.08423 -18.1187
LeftUpLeg  0.173659 0.456241 7.93391
LeftLeg  10.9142 -8.52391 2.38024
LeftFoot  -14.7802 -0.337268 -14.1132
LeftToes  3.40148e-010 1.80944e-010 1.01921e-010
19
root  -3.73625 38.8805 11.1847 -179.869 54.8624 176.974
RightUpLeg  -20.491 -10.5336 -3.78307
RightLeg  22.2747 -10.4717 -4.89009
RightFoot  -1.38015 -0.764717 8.65057
RightToes  -1.39699e-009 0 -3.6325e-017
Spine  10.3024 -0.392753 -13.8758
Spine1  30.8051 -2.85262 1.30247
HEad  -35.7133 44.2008 -24.6583
LeftShoulder1  2.82842 -8.27241 -17.3816
LeftArm  7.22197 -17.3558 -58.1862
LeftForeArm  8.88084 -76.4132 -63.0347
LeftHand  -0.268775 4.03417 22.5898
RightShoulder  0.74191 0.70135 10.4432
RightArm  0.00963803 -3.287 61.5911
RightForeArm  134.258 68.3581 151.012
RightHand  -1.48752 4.09756 -18.3258
LeftUpLeg  0.190645 0.367505 7.8535
LeftLeg  11.0169 -8.22906 2.41532
LeftFoot  -14.8912 -0.351891 -14.1623
LeftToes  3.40148e-010 1.80944e-010 1.01921e-010
20
root  -3.72074 38.8665 11.1668 -179.921 55.0914 176.902
RightUpLeg  -20.6015 -10.3703 -3.81732
RightLeg  22.4698 -10.3723 -4.88881
RightFoot  -1.48116 -0.757806 8.65166
RightToes  -1.39699e-009 0 -3.6325e-017
Spine  10.2161 -0.390907 -13.8156
Spine1  30.9126 -2.82432 1.28438
HEad  -35.785 44.3409 -25.0176
LeftShoulder1  2.86377 -8.51545 -17.1743
LeftArm  6.98677 -17.3302 -58.457
LeftForeArm  7.65114 -76.2432 -61.5898
LeftHand  -0.275499 3.99369 22.4882
RightShoulder  0.722291 0.574713 10.5195
RightArm  0.0390942 -3.03618 61.6844
RightForeArm  133.371 68.7074 150.402
RightHand  -1.45051 4.05545 -17.9568
LeftUpLeg  0.225737 0.216786 7.76161
LeftLeg  11.1467 -7.87175 2.46968
LeftFoot  -15.018 -0.368856 -14.2227
LeftToes  3.40148e-010 1.80944e-010 1.01921e-010
21
root  -3.70469 38.8528 11.1546 -179.961 55.391 176.825
RightUpLeg  -20.7409 -10.1836 -3.82948
RightLeg  22.644 -10.2466 -4.87066
RightFoot  -1.56004 -0.750437 8.62963
RightToes  -1.39699e-009 0 -3.6325e-017
Spine  10.1172 -0.349408 -13.7779
Spine1  30.9988 -2.75679 1.28208
HEad  -35.6721 44.576 -25.1544
LeftShoulder1  2.89461 -8.78902 -16.869
LeftArm  6.7691 -17.232 -58.8379
LeftForeArm  6.58699 -76.0643 -60.1433
LeftHand  -0.319084 3.77028 22.4955
RightShoulder  0.702274 0.475155 10.4542
RightArm  -0.100511 -2.83074 62.0402
RightForeArm  132.422 69.2603 149.454
RightHand  -1.36412 3.95333 -17.098
LeftUpLeg  0.252192 0.0870731 7.69502
LeftLeg  11.2818 -7.45626 2.48553
LeftFoot  -15.1391 -0.384153 -14.25
LeftToes  3.40148e-010 1.80944e-010 1.01921e-010
22
root  -3.68525 38.8389 11.1513 179.993 55.7784 176.762
RightUpLeg  -20.8777 -9.8982 -3.81399
RightLeg  22.8171 -10.1492 -4.8642
RightFoot  -1.62037 -0.744437 8.60825
RightToes  -1.39699e-009 0 -3.6325e-017
Spine  10.0784 -0.307703 -13.8422
Spine1  31.0012 -2.74429 1.35493
HEad  -35.5445 45.0322 -25.3416
LeftShoulder1  2.89594 -8.81684 -16.8237
LeftArm  6.86453 -17.242 -59.016
LeftForeArm  5.32884 -75.837 -58.4499
LeftHand  -0.446706 3.17982 23.1851
RightShoulder  0.707645 0.56859 10.1481
RightArm  -0.25268 -2.66756 62.7085
RightForeArm  130.769 69.9639 148.113
RightHand  -1.32715 3.88346 -16.7684
LeftUpLeg  0.312894 0.00716522 7.67647
LeftLeg  11.4239 -7.00225 2.45882
LeftFoot  -15.2618 -0.398774 -14.2502
LeftToes  3.40148e-010 1.80944e-010 1.01921e-010
23
root  -3.66605 38.8234 11.1478 179.881 56.2081 176.737
RightUpLeg  -20.9222 -9.56059 -3.79357
RightLeg  23.0069 -10.0474 -4.85871
RightFoot  -1.69264 -0.736986 8.57915
RightToes  -1.39699e-009 0 -3.6325e-017
Spine  10.1779 -0.297316 -13.9381
Spine1  30.95 -2.81697 1.47636
HEad  -35.6723 45.6088 -25.9987
LeftShoulder1  2.88384 -8.67846 -17.0058
LeftArm  7.12221 -17.3483 -58.9311
LeftForeArm  3.82836 -75.5595 -56.5788
LeftHand  -0.573226 2.64793 24.0667
RightShoulder  0.726246 0.746629 9.81725
RightArm  -0.242007 -2.34441 63.405
RightForeArm  128.005 70.6856 146.487
RightHand  -1.37203 3.88685 -17.3108
LeftUpLeg  0.474932 -0.107064 7.67429
LeftLeg  11.5981 -6.49422 2.44189
LeftFoot  -15.4169 -0.417739 -14.264
LeftToes  3.40148e-010 1.80944e-010 1.01921e-010
24
root  -3.65207 38.8033 11.1363 179.72 56.6381 176.718
RightUpLeg  -20.9268 -9.29133 -3.77656
RightLeg  23.2296 -9.86226 -4.82119
RightFoot  -1.79585 -0.72584 8.53083
RightToes  -1.39699e-009 0 -3.6325e-017
Spine  10.3231 -0.316558 -13.9527
Spine1  30.9389 -2.89958 1.54907
HEad  -36.0376 46.0945 -27.0476
LeftShoulder1  2.89281 -8.68774 -17.0664
LeftArm  7.18669 -17.3601 -58.8721
LeftForeArm  2.63188 -75.3025 -54.9698
LeftHand  -0.627247 2.44496 24.5228
RightShoulder  0.72563 0.782039 9.64234
RightArm  -0.135302 -1.75287 63.9438
RightForeArm  124.783 71.3921 144.692
RightHand  -1.42257 3.90996 -17.8887
LeftUpLeg  0.665918 -0.345461 7.63519
LeftLeg  11.8429 -5.88473 2.45605
LeftFoot  -15.6287 -0.444312 -14.2987
LeftToes  3.40148e-010 1.80944e-010 1.01921e-010
25
root  -3.64035 38.7771 11.1221 179.618 57.0826 176.703
RightUpLeg  -21.0183 -9.10076 -3.74649
RightLeg  23.4862 -9.60659 -4.7563
RightFoot  -1.92237 -0.712648 8.47583
RightToes  -1.39699e-009 0 -3.6325e-017
Spine  10.361 -0.361784 -13.8372
Spine1  31.0054 -2.91035 1.47842
HEad  -36.3363 46.4442 -27.9009
LeftShoulder1  2.92046 -8.89488 -16.8778
LeftArm  7.01303 -17.2129 -59.0701
LeftForeArm  2.08392 -75.1162 -53.8269
LeftHand  -0.663643 2.3012 24.7369
RightShoulder  0.702783 0.680223 9.49317
RightArm  -0.119457 -1.07586 64.5005
RightForeArm  121.948 72.1287 142.736
RightHand  -1.42255 3.87859 -17.9456
LeftUpLeg  0.755494 -0.682168 7.58122
LeftLeg  12.1895 -5.16458 2.47534
LeftFoot  -15.8999 -0.478358 -14.3391
LeftToes  3.40148e-010 1.80944e-010 1.01921e-010
26
root  -3.62364 38.7466 11.1169 179.614 57.5822 176.767
RightUpLeg  -21.1648 -8.85931 -3.63795
RightLeg  23.7601 -9.37281 -4.70252
RightFoot  -2.05692 -0.698357 8.4124
RightToes  -1.39699e-009 0 -3.6325e-017
Spine  10.3419 -0.408947 -13.6178
Spine1  31.0818 -2.8369 1.2776
HEad  -36.3796 46.7465 -28.2328
LeftShoulder1  2.93633 -9.06735 -16.6628
LeftArm  6.84703 -17.0921 -59.4043
LeftForeArm  1.67432 -74.941 -52.7934
LeftHand  -0.737496 2.00583 25.0963
RightShoulder  0.681898 0.615976 9.21941
RightArm  -0.219052 -0.540618 65.2314
RightForeArm  119.524 72.9281 140.506
RightHand  -1.41143 3.85156 -17.8596
LeftUpLeg  0.782842 -1.05128 7.58461
LeftLeg  12.6241 -4.35876 2.49779
LeftFoot  -16.2049 -0.517641 -14.4018
LeftToes  3.40148e-010 1.80944e-010 1.01921e-010
27
root  -3.60257 38.7139 11.1234 179.594 58.1204 176.882
RightUpLeg  -21.2662 -8.51938 -3.48969
RightLeg  24.0655 -9.17534 -4.66968
RightFoot  -2.19853 -0.681403 8.31979
RightToes  -1.39699e-009 0 -3.6325e-017
Spine  10.4198 -0.406252 -13.4131
Spine1  31.1086 -2.74241 1.12116
HEad  -36.2854 47.0024 -28.3833
LeftShoulder1  2.94897 -9.118 -16.6699
LeftArm  6.81246 -17.2007 -59.5823
LeftForeArm  0.610605 -74.668 -51.3681
LeftHand  -0.809167 1.73359 25.4915
RightShoulder  0.669564 0.60261 8.94144
RightArm  -0.276907 -0.126848 65.9467
RightForeArm  116.846 73.8064 137.765
RightHand  -1.43401 3.923 -18.003
LeftUpLeg  0.863453 -1.51206 7.6152
LeftLeg  13.0996 -3.44152 2.55394
LeftFoot  -16.5035 -0.558718 -14.513
LeftToes  3.40148e-010 1.80944e-010 1.01921e-010
28
root  -3.58443 38.6777 11.1316 179.477 58.6149 176.897
RightUpLeg  -21.3888 -8.21863 -3.40834
RightLeg  24.4481 -8.94803 -4.63518
RightFoot  -2.35735 -0.663029 8.2206
RightToes  -1.39699e-009 0 -3.6325e-017
Spine  10.5555 -0.365462 -13.3413
Spine1  31.1252 -2.7151 1.14454
HEad  -36.2845 47.2019 -28.8081
LeftShoulder1  2.99013 -9.16324 -16.9323
LeftArm  6.82267 -17.5342 -59.4982
LeftForeArm  -1.17617 -74.2752 -49.5406
LeftHand  -0.837725 1.63724 25.7107
RightShoulder  0.650305 0.507753 8.8368
RightArm  -0.170375 0.304802 66.3973
RightForeArm  113.321 74.7428 134.31
RightHand  -1.45931 3.99756 -18.172
LeftUpLeg  0.931843 -2.17372 7.563
LeftLeg  13.6043 -2.3787 2.63509
LeftFoot  -16.7844 -0.599264 -14.6462
LeftToes  3.40148e-010 1.80944e-010 1.01921e-010
29
root  -3.56902 38.6367 11.1317 179.357 59.0359 176.827
RightUpLeg  -21.6083 -8.02452 -3.38653
RightLeg  24.8917 -8.70048 -4.59921
RightFoot  -2.53773 -0.647549 8.17325
RightToes  -1.39699e-009 0 -3.6325e-017
Spine  10.6206 -0.385589 -13.3087
Spine1  31.1795 -2.76338 1.19082
HEad  -36.4904 47.493 -29.4867
LeftShoulder1  3.03502 -9.20049 -17.2413
LeftArm  6.81507 -17.9145 -59.3558
LeftForeArm  -3.04426 -73.8511 -47.7501
LeftHand  -0.848154 1.61954 25.9034
RightShoulder  0.624919 0.344174 8.8722
RightArm  0.0413612 0.723904 66.6197
RightForeArm  108.943 75.6649 130.163
RightHand  -1.44498 3.92469 -18.1335
LeftUpLeg  0.881662 -2.9324 7.46225
LeftLeg  14.1662 -1.28794 2.68235
LeftFoot  -17.0859 -0.64101 -14.7393
LeftToes  3.40148e-010 1.80944e-010 1.01921e-010
30
root  -3.5482 38.5949 11.1241 179.33 59.4855 176.904
RightUpLeg  -21.7521 -7.77807 -3.29559
RightLeg  25.2891 -8.49368 -4.57095
RightFoot  -2.73146 -0.635442 8.17969
RightToes  -1.39699e-009 0 -3.6325e-017
Spine  10.7005 -0.497075 -13.0787
Spine1  31.2291 -2.78427 1.00539
HEad  -36.8388 47.9792 -30.1311
LeftShoulder1  3.01821 -9.10908 -17.2841
LeftArm  6.79814 -18.1786 -59.4664
LeftForeArm  -4.53214 -73.4776 -46.2893
LeftHand  -0.867581 1.58708 26.2626
RightShoulder  0.613489 0.265387 8.91403
RightArm  0.191438 0.948561 66.7859
RightForeArm  103.967 76.5416 125.294
RightHand  -1.4149 3.78665 -18.0236
LeftUpLeg  0.870738 -3.49502 7.48601
LeftLeg  14.7621 -0.380173 2.66001
LeftFoot  -17.4376 -0.686409 -14.7752
LeftToes  3.40148e-010 1.80944e-010 1.01921e-010
31
root  -3.52222 38.5576 11.114 179.288 60.0831 177.161
RightUpLeg  -21.6607 -7.38951 -3.11896
RightLeg  25.5798 -8.25051 -4.50114
RightFoot  -2.93398 -0.622961 8.18905
RightToes  -1.39699e-009 0 -3.6325e-017
Spine  10.9409 -0.586751 -12.6684
Spine1  31.2128 -2.70735 0.665612
HEad  -37.1767 48.4852 -30.7033
LeftShoulder1  2.94352 -8.93387 -16.9986
LeftArm  6.72343 -18.3255 -59.8884
LeftForeArm  -5.85567 -73.1325 -45.0345
LeftHand  -0.882675 1.57861 26.652
RightShoulder  0.619365 0.305118 8.89614
RightArm  0.186066 0.899309 66.9273
RightForeArm  98.0542 77.4132 119.106
RightHand  -1.41466 3.81153 -17.974
LeftUpLeg  1.10396 -3.7497 7.63997
LeftLeg  15.3167 0.339604 2.59201
LeftFoot  -17.7955 -0.732715 -14.8088
LeftToes  3.40148e-010 1.80944e-010 1.01921e-010
